<mxfile host="app.diagrams.net" agent="Mozilla/5.0 (Windows NT 10.0; Win64; x64) AppleWebKit/537.36 (KHTML, like Gecko) Chrome/135.0.0.0 Safari/537.36" version="26.2.12" pages="7">
  <diagram id="x7nSZuvn61WTCZcuMnr2" name="기본 레이아웃">
    <mxGraphModel dx="1434" dy="772" grid="1" gridSize="10" guides="1" tooltips="1" connect="1" arrows="1" fold="1" page="1" pageScale="1" pageWidth="827" pageHeight="1169" math="0" shadow="0">
      <root>
        <mxCell id="0" />
        <mxCell id="1" parent="0" />
      </root>
    </mxGraphModel>
  </diagram>
  <diagram id="tc_-vq-sb8Pz8aeLN-lh" name="홈">
    <mxGraphModel dx="1434" dy="772" grid="1" gridSize="10" guides="1" tooltips="1" connect="1" arrows="1" fold="1" page="1" pageScale="1" pageWidth="827" pageHeight="1169" math="0" shadow="0">
      <root>
        <mxCell id="0" />
        <mxCell id="1" parent="0" />
      </root>
    </mxGraphModel>
  </diagram>
  <diagram name="포트폴리오" id="iMx3M16fqCBgvrFUOXO2">
    <mxGraphModel dx="819" dy="441" grid="1" gridSize="10" guides="1" tooltips="1" connect="1" arrows="1" fold="1" page="1" pageScale="1" pageWidth="827" pageHeight="1169" math="0" shadow="0">
      <root>
        <mxCell id="0" />
        <mxCell id="1" parent="0" />
      </root>
    </mxGraphModel>
  </diagram>
  <diagram id="rY8DN4_zeiYi_IBr8bS1" name="능력치 시각화">
    <mxGraphModel dx="1195" dy="643" grid="1" gridSize="10" guides="1" tooltips="1" connect="1" arrows="1" fold="1" page="1" pageScale="1" pageWidth="827" pageHeight="1169" math="0" shadow="0">
      <root>
        <mxCell id="0" />
        <mxCell id="1" style="" parent="0" />
        <mxCell id="iErjEnIpuA1GD9uc67Xd-1" value="" style="rounded=0;whiteSpace=wrap;html=1;" vertex="1" parent="1">
          <mxGeometry x="120" y="120" width="200" height="370" as="geometry" />
        </mxCell>
        <mxCell id="iErjEnIpuA1GD9uc67Xd-7" value="" style="rounded=0;whiteSpace=wrap;html=1;" vertex="1" parent="1">
          <mxGeometry x="120" y="590" width="200" height="360" as="geometry" />
        </mxCell>
        <mxCell id="iErjEnIpuA1GD9uc67Xd-8" value="조회" style="text;html=1;align=center;verticalAlign=middle;whiteSpace=wrap;rounded=0;" vertex="1" parent="1">
          <mxGeometry x="120" y="90" width="40" height="30" as="geometry" />
        </mxCell>
        <mxCell id="iErjEnIpuA1GD9uc67Xd-9" value="수정" style="text;html=1;align=center;verticalAlign=middle;whiteSpace=wrap;rounded=0;" vertex="1" parent="1">
          <mxGeometry x="120" y="560" width="40" height="30" as="geometry" />
        </mxCell>
        <mxCell id="iErjEnIpuA1GD9uc67Xd-43" value="" style="rounded=0;whiteSpace=wrap;html=1;" vertex="1" parent="1">
          <mxGeometry x="360" y="590" width="200" height="360" as="geometry" />
        </mxCell>
        <mxCell id="iErjEnIpuA1GD9uc67Xd-2" value="조회" style="" parent="0" />
        <mxCell id="iErjEnIpuA1GD9uc67Xd-3" value="능력치 차트" style="rounded=0;whiteSpace=wrap;html=1;" vertex="1" parent="iErjEnIpuA1GD9uc67Xd-2">
          <mxGeometry x="140" y="150" width="160" height="160" as="geometry" />
        </mxCell>
        <mxCell id="iErjEnIpuA1GD9uc67Xd-6" value="수정" style="rounded=1;whiteSpace=wrap;html=1;" vertex="1" parent="iErjEnIpuA1GD9uc67Xd-2">
          <mxGeometry x="260" y="440" width="40" height="30" as="geometry" />
        </mxCell>
        <mxCell id="iErjEnIpuA1GD9uc67Xd-10" value="수정" parent="0" />
        <mxCell id="iErjEnIpuA1GD9uc67Xd-17" value="능력" style="rounded=0;whiteSpace=wrap;html=1;align=left;fontStyle=1;fillColor=none;strokeColor=none;" vertex="1" parent="iErjEnIpuA1GD9uc67Xd-10">
          <mxGeometry x="140" y="630" width="170" height="20" as="geometry" />
        </mxCell>
        <mxCell id="iErjEnIpuA1GD9uc67Xd-18" value="▲ 프로그래밍 언어" style="rounded=0;whiteSpace=wrap;html=1;align=left;strokeColor=none;fillColor=none;" vertex="1" parent="iErjEnIpuA1GD9uc67Xd-10">
          <mxGeometry x="140" y="650" width="170" height="20" as="geometry" />
        </mxCell>
        <mxCell id="iErjEnIpuA1GD9uc67Xd-19" value="자바&amp;nbsp;&lt;div&gt;⭐&lt;span style=&quot;background-color: initial;&quot;&gt;⭐&lt;/span&gt;&lt;span style=&quot;background-color: initial;&quot;&gt;⭐&lt;/span&gt;&lt;span style=&quot;background-color: initial;&quot;&gt;⭐&lt;/span&gt;&lt;/div&gt;&lt;div&gt;&lt;span style=&quot;background-color: initial;&quot;&gt;# 주언어&lt;/span&gt;&lt;/div&gt;" style="rounded=1;whiteSpace=wrap;html=1;align=left;verticalAlign=middle;" vertex="1" parent="iErjEnIpuA1GD9uc67Xd-10">
          <mxGeometry x="146" y="670" width="164" height="50" as="geometry" />
        </mxCell>
        <mxCell id="iErjEnIpuA1GD9uc67Xd-28" value="저장" style="rounded=1;whiteSpace=wrap;html=1;" vertex="1" parent="iErjEnIpuA1GD9uc67Xd-10">
          <mxGeometry x="260" y="920" width="50" height="20" as="geometry" />
        </mxCell>
        <mxCell id="iErjEnIpuA1GD9uc67Xd-29" value="취소" style="rounded=1;whiteSpace=wrap;html=1;" vertex="1" parent="iErjEnIpuA1GD9uc67Xd-10">
          <mxGeometry x="140" y="920" width="50" height="20" as="geometry" />
        </mxCell>
        <mxCell id="iErjEnIpuA1GD9uc67Xd-30" value="파이썬&lt;br&gt;&lt;div&gt;⭐&lt;span style=&quot;background-color: initial;&quot;&gt;⭐&lt;/span&gt;&lt;/div&gt;" style="rounded=1;whiteSpace=wrap;html=1;align=left;verticalAlign=middle;" vertex="1" parent="iErjEnIpuA1GD9uc67Xd-10">
          <mxGeometry x="146" y="725" width="164" height="45" as="geometry" />
        </mxCell>
        <mxCell id="iErjEnIpuA1GD9uc67Xd-32" value="▼ 백엔드 프레임워크" style="rounded=0;whiteSpace=wrap;html=1;align=left;strokeColor=none;fillColor=none;" vertex="1" parent="iErjEnIpuA1GD9uc67Xd-10">
          <mxGeometry x="140" y="780" width="170" height="20" as="geometry" />
        </mxCell>
        <mxCell id="iErjEnIpuA1GD9uc67Xd-33" value="▼ 데이터베이스" style="rounded=0;whiteSpace=wrap;html=1;align=left;strokeColor=none;fillColor=none;" vertex="1" parent="iErjEnIpuA1GD9uc67Xd-10">
          <mxGeometry x="140" y="800" width="170" height="20" as="geometry" />
        </mxCell>
        <mxCell id="iErjEnIpuA1GD9uc67Xd-38" value="스킬 목록" style="rounded=0;whiteSpace=wrap;html=1;" vertex="1" parent="iErjEnIpuA1GD9uc67Xd-10">
          <mxGeometry x="140" y="330" width="160" height="90" as="geometry" />
        </mxCell>
        <mxCell id="iErjEnIpuA1GD9uc67Xd-44" value="" style="rounded=1;whiteSpace=wrap;html=1;arcSize=11;" vertex="1" parent="iErjEnIpuA1GD9uc67Xd-10">
          <mxGeometry x="380" y="650" width="160" height="220" as="geometry" />
        </mxCell>
        <mxCell id="iErjEnIpuA1GD9uc67Xd-45" value="+" style="ellipse;whiteSpace=wrap;html=1;aspect=fixed;" vertex="1" parent="iErjEnIpuA1GD9uc67Xd-10">
          <mxGeometry x="170" y="630" width="20" height="20" as="geometry" />
        </mxCell>
        <mxCell id="iErjEnIpuA1GD9uc67Xd-41" value="+" style="ellipse;whiteSpace=wrap;html=1;aspect=fixed;" vertex="1" parent="iErjEnIpuA1GD9uc67Xd-10">
          <mxGeometry x="524" y="646" width="20" height="20" as="geometry" />
        </mxCell>
        <mxCell id="iErjEnIpuA1GD9uc67Xd-46" value="능력 추가" style="text;html=1;align=center;verticalAlign=middle;whiteSpace=wrap;rounded=0;" vertex="1" parent="iErjEnIpuA1GD9uc67Xd-10">
          <mxGeometry x="383.5" y="650" width="60" height="30" as="geometry" />
        </mxCell>
        <mxCell id="iErjEnIpuA1GD9uc67Xd-47" value="카테고리" style="rounded=1;whiteSpace=wrap;html=1;align=left;" vertex="1" parent="iErjEnIpuA1GD9uc67Xd-10">
          <mxGeometry x="394" y="690" width="126" height="20" as="geometry" />
        </mxCell>
        <mxCell id="iErjEnIpuA1GD9uc67Xd-49" value="능력" style="rounded=1;whiteSpace=wrap;html=1;align=left;" vertex="1" parent="iErjEnIpuA1GD9uc67Xd-10">
          <mxGeometry x="394" y="720" width="126" height="20" as="geometry" />
        </mxCell>
        <mxCell id="iErjEnIpuA1GD9uc67Xd-50" value="태그" style="rounded=1;whiteSpace=wrap;html=1;align=left;" vertex="1" parent="iErjEnIpuA1GD9uc67Xd-10">
          <mxGeometry x="394" y="770" width="126" height="60" as="geometry" />
        </mxCell>
        <mxCell id="iErjEnIpuA1GD9uc67Xd-51" value="&lt;span style=&quot;color: rgb(0, 0, 0); font-family: Helvetica; font-size: 12px; font-style: normal; font-variant-ligatures: normal; font-variant-caps: normal; font-weight: 400; letter-spacing: normal; orphans: 2; text-indent: 0px; text-transform: none; widows: 2; word-spacing: 0px; -webkit-text-stroke-width: 0px; white-space: normal; background-color: rgb(251, 251, 251); text-decoration-thickness: initial; text-decoration-style: initial; text-decoration-color: initial; float: none; display: inline !important;&quot;&gt;⭐&lt;/span&gt;&lt;span style=&quot;forced-color-adjust: none; color: rgb(0, 0, 0); font-family: Helvetica; font-size: 12px; font-style: normal; font-variant-ligatures: normal; font-variant-caps: normal; font-weight: 400; letter-spacing: normal; orphans: 2; text-indent: 0px; text-transform: none; widows: 2; word-spacing: 0px; -webkit-text-stroke-width: 0px; white-space: normal; background-color: initial; text-decoration-thickness: initial; text-decoration-style: initial; text-decoration-color: initial;&quot;&gt;⭐&lt;/span&gt;⭐&lt;span style=&quot;background-color: initial;&quot;&gt;⭐&lt;/span&gt;⭐" style="text;html=1;align=left;verticalAlign=middle;whiteSpace=wrap;rounded=0;" vertex="1" parent="iErjEnIpuA1GD9uc67Xd-10">
          <mxGeometry x="394" y="739" width="86" height="30" as="geometry" />
        </mxCell>
        <mxCell id="iErjEnIpuA1GD9uc67Xd-59" value="" style="rounded=0;whiteSpace=wrap;html=1;" vertex="1" parent="iErjEnIpuA1GD9uc67Xd-10">
          <mxGeometry x="600" y="590" width="200" height="360" as="geometry" />
        </mxCell>
        <mxCell id="iErjEnIpuA1GD9uc67Xd-60" value="" style="rounded=1;whiteSpace=wrap;html=1;arcSize=11;" vertex="1" parent="iErjEnIpuA1GD9uc67Xd-10">
          <mxGeometry x="620" y="650" width="160" height="260" as="geometry" />
        </mxCell>
        <mxCell id="iErjEnIpuA1GD9uc67Xd-61" value="+" style="ellipse;whiteSpace=wrap;html=1;aspect=fixed;" vertex="1" parent="iErjEnIpuA1GD9uc67Xd-10">
          <mxGeometry x="764" y="646" width="20" height="20" as="geometry" />
        </mxCell>
        <mxCell id="iErjEnIpuA1GD9uc67Xd-62" value="능력 추가" style="text;html=1;align=center;verticalAlign=middle;whiteSpace=wrap;rounded=0;" vertex="1" parent="iErjEnIpuA1GD9uc67Xd-10">
          <mxGeometry x="623.5" y="650" width="60" height="30" as="geometry" />
        </mxCell>
        <mxCell id="iErjEnIpuA1GD9uc67Xd-63" value="직접입력" style="rounded=1;whiteSpace=wrap;html=1;align=left;" vertex="1" parent="iErjEnIpuA1GD9uc67Xd-10">
          <mxGeometry x="634" y="690" width="126" height="20" as="geometry" />
        </mxCell>
        <mxCell id="iErjEnIpuA1GD9uc67Xd-64" value="직접입력" style="rounded=1;whiteSpace=wrap;html=1;align=left;" vertex="1" parent="iErjEnIpuA1GD9uc67Xd-10">
          <mxGeometry x="634" y="750" width="126" height="20" as="geometry" />
        </mxCell>
        <mxCell id="iErjEnIpuA1GD9uc67Xd-65" value="태그" style="rounded=1;whiteSpace=wrap;html=1;align=left;" vertex="1" parent="iErjEnIpuA1GD9uc67Xd-10">
          <mxGeometry x="634" y="831" width="126" height="40" as="geometry" />
        </mxCell>
        <mxCell id="iErjEnIpuA1GD9uc67Xd-66" value="&lt;span style=&quot;color: rgb(0, 0, 0); font-family: Helvetica; font-size: 12px; font-style: normal; font-variant-ligatures: normal; font-variant-caps: normal; font-weight: 400; letter-spacing: normal; orphans: 2; text-indent: 0px; text-transform: none; widows: 2; word-spacing: 0px; -webkit-text-stroke-width: 0px; white-space: normal; background-color: rgb(251, 251, 251); text-decoration-thickness: initial; text-decoration-style: initial; text-decoration-color: initial; float: none; display: inline !important;&quot;&gt;⭐&lt;/span&gt;&lt;span style=&quot;forced-color-adjust: none; color: rgb(0, 0, 0); font-family: Helvetica; font-size: 12px; font-style: normal; font-variant-ligatures: normal; font-variant-caps: normal; font-weight: 400; letter-spacing: normal; orphans: 2; text-indent: 0px; text-transform: none; widows: 2; word-spacing: 0px; -webkit-text-stroke-width: 0px; white-space: normal; background-color: initial; text-decoration-thickness: initial; text-decoration-style: initial; text-decoration-color: initial;&quot;&gt;⭐&lt;/span&gt;⭐&lt;span style=&quot;background-color: initial;&quot;&gt;⭐&lt;/span&gt;⭐" style="text;html=1;align=left;verticalAlign=middle;whiteSpace=wrap;rounded=0;" vertex="1" parent="iErjEnIpuA1GD9uc67Xd-10">
          <mxGeometry x="634" y="801" width="86" height="30" as="geometry" />
        </mxCell>
        <mxCell id="iErjEnIpuA1GD9uc67Xd-67" value="▾" style="text;html=1;align=center;verticalAlign=middle;whiteSpace=wrap;rounded=0;" vertex="1" parent="iErjEnIpuA1GD9uc67Xd-10">
          <mxGeometry x="720" y="685" width="60" height="30" as="geometry" />
        </mxCell>
        <mxCell id="iErjEnIpuA1GD9uc67Xd-69" value="▾" style="text;html=1;align=center;verticalAlign=middle;whiteSpace=wrap;rounded=0;" vertex="1" parent="iErjEnIpuA1GD9uc67Xd-10">
          <mxGeometry x="494" y="685" width="26" height="35" as="geometry" />
        </mxCell>
        <mxCell id="iErjEnIpuA1GD9uc67Xd-70" value="카테고리명" style="rounded=1;whiteSpace=wrap;html=1;align=left;" vertex="1" parent="iErjEnIpuA1GD9uc67Xd-10">
          <mxGeometry x="634" y="720" width="126" height="20" as="geometry" />
        </mxCell>
        <mxCell id="iErjEnIpuA1GD9uc67Xd-71" value="▾" style="text;html=1;align=center;verticalAlign=middle;whiteSpace=wrap;rounded=0;" vertex="1" parent="iErjEnIpuA1GD9uc67Xd-10">
          <mxGeometry x="492" y="715" width="30" height="30" as="geometry" />
        </mxCell>
        <mxCell id="iErjEnIpuA1GD9uc67Xd-72" value="▾" style="text;html=1;align=center;verticalAlign=middle;whiteSpace=wrap;rounded=0;" vertex="1" parent="iErjEnIpuA1GD9uc67Xd-10">
          <mxGeometry x="735" y="745" width="30" height="30" as="geometry" />
        </mxCell>
        <mxCell id="iErjEnIpuA1GD9uc67Xd-73" value="능력명" style="rounded=1;whiteSpace=wrap;html=1;align=left;" vertex="1" parent="iErjEnIpuA1GD9uc67Xd-10">
          <mxGeometry x="634" y="780" width="126" height="20" as="geometry" />
        </mxCell>
        <mxCell id="iErjEnIpuA1GD9uc67Xd-74" value="저장" style="rounded=1;whiteSpace=wrap;html=1;" vertex="1" parent="iErjEnIpuA1GD9uc67Xd-10">
          <mxGeometry x="470" y="841" width="50" height="20" as="geometry" />
        </mxCell>
        <mxCell id="iErjEnIpuA1GD9uc67Xd-75" value="저장" style="rounded=1;whiteSpace=wrap;html=1;" vertex="1" parent="iErjEnIpuA1GD9uc67Xd-10">
          <mxGeometry x="710" y="880" width="50" height="20" as="geometry" />
        </mxCell>
        <mxCell id="iErjEnIpuA1GD9uc67Xd-76" value="..." style="text;html=1;align=center;verticalAlign=middle;whiteSpace=wrap;rounded=0;" vertex="1" parent="iErjEnIpuA1GD9uc67Xd-10">
          <mxGeometry x="268" y="662" width="60" height="30" as="geometry" />
        </mxCell>
        <mxCell id="iErjEnIpuA1GD9uc67Xd-77" value="..." style="text;html=1;align=center;verticalAlign=middle;whiteSpace=wrap;rounded=0;" vertex="1" parent="iErjEnIpuA1GD9uc67Xd-10">
          <mxGeometry x="268" y="715" width="60" height="30" as="geometry" />
        </mxCell>
        <mxCell id="iErjEnIpuA1GD9uc67Xd-78" value="수정" style="rounded=0;whiteSpace=wrap;html=1;" vertex="1" parent="iErjEnIpuA1GD9uc67Xd-10">
          <mxGeometry x="250" y="730" width="50" height="20" as="geometry" />
        </mxCell>
        <mxCell id="iErjEnIpuA1GD9uc67Xd-79" value="삭제" style="rounded=0;whiteSpace=wrap;html=1;" vertex="1" parent="iErjEnIpuA1GD9uc67Xd-10">
          <mxGeometry x="250" y="750" width="50" height="20" as="geometry" />
        </mxCell>
        <mxCell id="iErjEnIpuA1GD9uc67Xd-80" value="능력 추가/수정 모달" style="text;html=1;align=center;verticalAlign=middle;whiteSpace=wrap;rounded=0;" vertex="1" parent="iErjEnIpuA1GD9uc67Xd-10">
          <mxGeometry x="360" y="560" width="110" height="30" as="geometry" />
        </mxCell>
        <mxCell id="iErjEnIpuA1GD9uc67Xd-81" value="능력 추가/수정 모달" style="text;html=1;align=center;verticalAlign=middle;whiteSpace=wrap;rounded=0;" vertex="1" parent="iErjEnIpuA1GD9uc67Xd-10">
          <mxGeometry x="598.5" y="560" width="110" height="30" as="geometry" />
        </mxCell>
        <mxCell id="Q-k5D7z2rnluCMv-YOKe-1" value="" style="endArrow=classic;html=1;rounded=0;entryX=0.5;entryY=0;entryDx=0;entryDy=0;" edge="1" parent="iErjEnIpuA1GD9uc67Xd-10" source="iErjEnIpuA1GD9uc67Xd-6" target="iErjEnIpuA1GD9uc67Xd-7">
          <mxGeometry width="50" height="50" relative="1" as="geometry">
            <mxPoint x="440" y="650" as="sourcePoint" />
            <mxPoint x="490" y="600" as="targetPoint" />
          </mxGeometry>
        </mxCell>
        <mxCell id="Q-k5D7z2rnluCMv-YOKe-2" value="" style="endArrow=classic;html=1;rounded=0;entryX=0;entryY=0.25;entryDx=0;entryDy=0;" edge="1" parent="iErjEnIpuA1GD9uc67Xd-10" target="iErjEnIpuA1GD9uc67Xd-43">
          <mxGeometry width="50" height="50" relative="1" as="geometry">
            <mxPoint x="190" y="640" as="sourcePoint" />
            <mxPoint x="350" y="640" as="targetPoint" />
          </mxGeometry>
        </mxCell>
        <mxCell id="Q-k5D7z2rnluCMv-YOKe-3" value="" style="endArrow=classic;html=1;rounded=0;entryX=0;entryY=0.5;entryDx=0;entryDy=0;exitX=0.5;exitY=1;exitDx=0;exitDy=0;" edge="1" parent="iErjEnIpuA1GD9uc67Xd-10" source="iErjEnIpuA1GD9uc67Xd-77" target="iErjEnIpuA1GD9uc67Xd-43">
          <mxGeometry width="50" height="50" relative="1" as="geometry">
            <mxPoint x="200" y="650" as="sourcePoint" />
            <mxPoint x="370" y="690" as="targetPoint" />
          </mxGeometry>
        </mxCell>
      </root>
    </mxGraphModel>
  </diagram>
  <diagram id="wPHYTMhxiMA5YW0ri5xM" name="성장 트래킹">
    <mxGraphModel dx="2380" dy="1295" grid="1" gridSize="10" guides="1" tooltips="1" connect="1" arrows="1" fold="1" page="1" pageScale="1" pageWidth="827" pageHeight="1169" math="0" shadow="0">
      <root>
        <mxCell id="0" />
        <mxCell id="1" style="locked=1;" parent="0" />
        <mxCell id="5XtY5YjrWJz4HPcQoO6L-1" value="" style="rounded=0;whiteSpace=wrap;html=1;" vertex="1" parent="1">
          <mxGeometry x="120" y="80" width="200" height="360" as="geometry" />
        </mxCell>
        <mxCell id="5XtY5YjrWJz4HPcQoO6L-2" value="추가/수정" style="text;html=1;align=center;verticalAlign=middle;whiteSpace=wrap;rounded=0;" vertex="1" parent="1">
          <mxGeometry x="120" y="530" width="60" height="30" as="geometry" />
        </mxCell>
        <mxCell id="5XtY5YjrWJz4HPcQoO6L-12" value="" style="rounded=0;whiteSpace=wrap;html=1;" vertex="1" parent="1">
          <mxGeometry x="120" y="560" width="200" height="360" as="geometry" />
        </mxCell>
        <mxCell id="5XtY5YjrWJz4HPcQoO6L-13" value="조회" style="text;html=1;align=center;verticalAlign=middle;whiteSpace=wrap;rounded=0;" vertex="1" parent="1">
          <mxGeometry x="120" y="50" width="60" height="30" as="geometry" />
        </mxCell>
        <mxCell id="5XtY5YjrWJz4HPcQoO6L-5" value="조회" parent="0" />
        <mxCell id="5XtY5YjrWJz4HPcQoO6L-6" value="최근 3개월&amp;nbsp;&lt;div&gt;잔디&lt;/div&gt;" style="rounded=0;whiteSpace=wrap;html=1;" vertex="1" parent="5XtY5YjrWJz4HPcQoO6L-5">
          <mxGeometry x="140" y="100" width="160" height="80" as="geometry" />
        </mxCell>
        <mxCell id="5XtY5YjrWJz4HPcQoO6L-7" value="최근 3개월&amp;nbsp;&lt;div&gt;활동 로그&lt;/div&gt;&lt;div&gt;(무한 스크롤)&lt;/div&gt;" style="rounded=0;whiteSpace=wrap;html=1;" vertex="1" parent="5XtY5YjrWJz4HPcQoO6L-5">
          <mxGeometry x="140" y="200" width="160" height="150" as="geometry" />
        </mxCell>
        <mxCell id="5XtY5YjrWJz4HPcQoO6L-10" value="+" style="ellipse;whiteSpace=wrap;html=1;aspect=fixed;" vertex="1" parent="5XtY5YjrWJz4HPcQoO6L-5">
          <mxGeometry x="270" y="390" width="30" height="30" as="geometry" />
        </mxCell>
        <mxCell id="5XtY5YjrWJz4HPcQoO6L-11" value="날짜 클릭시&lt;div&gt;해당일자의&amp;nbsp;&lt;/div&gt;&lt;div&gt;활동로그만 조회&lt;/div&gt;" style="ellipse;shape=cloud;whiteSpace=wrap;html=1;" vertex="1" parent="5XtY5YjrWJz4HPcQoO6L-5">
          <mxGeometry x="340" y="85" width="156" height="110" as="geometry" />
        </mxCell>
        <mxCell id="5XtY5YjrWJz4HPcQoO6L-14" value="추가" parent="0" />
        <mxCell id="5XtY5YjrWJz4HPcQoO6L-15" value="타입" style="rounded=1;whiteSpace=wrap;html=1;align=left;" vertex="1" parent="5XtY5YjrWJz4HPcQoO6L-14">
          <mxGeometry x="140" y="585" width="160" height="25" as="geometry" />
        </mxCell>
        <mxCell id="5XtY5YjrWJz4HPcQoO6L-16" value="플랫폼" style="rounded=1;whiteSpace=wrap;html=1;align=left;" vertex="1" parent="5XtY5YjrWJz4HPcQoO6L-14">
          <mxGeometry x="140" y="620" width="160" height="25" as="geometry" />
        </mxCell>
        <mxCell id="5XtY5YjrWJz4HPcQoO6L-17" value="제목" style="rounded=1;whiteSpace=wrap;html=1;align=left;" vertex="1" parent="5XtY5YjrWJz4HPcQoO6L-14">
          <mxGeometry x="140" y="660" width="160" height="25" as="geometry" />
        </mxCell>
        <mxCell id="9KalYZCbinb6cbjK1twI-2" value="▾" style="text;html=1;align=center;verticalAlign=middle;whiteSpace=wrap;rounded=0;" vertex="1" parent="5XtY5YjrWJz4HPcQoO6L-14">
          <mxGeometry x="274" y="580" width="26" height="35" as="geometry" />
        </mxCell>
        <mxCell id="9KalYZCbinb6cbjK1twI-3" value="▾" style="text;html=1;align=center;verticalAlign=middle;whiteSpace=wrap;rounded=0;" vertex="1" parent="5XtY5YjrWJz4HPcQoO6L-14">
          <mxGeometry x="274" y="615" width="26" height="35" as="geometry" />
        </mxCell>
        <mxCell id="9KalYZCbinb6cbjK1twI-5" value="▾" style="text;html=1;align=center;verticalAlign=middle;whiteSpace=wrap;rounded=0;" vertex="1" parent="5XtY5YjrWJz4HPcQoO6L-14">
          <mxGeometry x="274" y="655" width="26" height="35" as="geometry" />
        </mxCell>
        <mxCell id="9KalYZCbinb6cbjK1twI-6" value="내용" style="rounded=1;whiteSpace=wrap;html=1;align=left;arcSize=6;verticalAlign=top;" vertex="1" parent="5XtY5YjrWJz4HPcQoO6L-14">
          <mxGeometry x="140" y="695" width="160" height="95" as="geometry" />
        </mxCell>
        <mxCell id="9KalYZCbinb6cbjK1twI-8" value="태그" style="rounded=1;whiteSpace=wrap;html=1;align=left;arcSize=6;verticalAlign=top;" vertex="1" parent="5XtY5YjrWJz4HPcQoO6L-14">
          <mxGeometry x="140" y="800" width="160" height="60" as="geometry" />
        </mxCell>
        <mxCell id="9KalYZCbinb6cbjK1twI-9" value="저장" style="rounded=1;whiteSpace=wrap;html=1;" vertex="1" parent="5XtY5YjrWJz4HPcQoO6L-14">
          <mxGeometry x="260" y="880" width="40" height="30" as="geometry" />
        </mxCell>
        <mxCell id="9KalYZCbinb6cbjK1twI-10" value="" style="rounded=1;whiteSpace=wrap;html=1;arcSize=46;" vertex="1" parent="5XtY5YjrWJz4HPcQoO6L-14">
          <mxGeometry x="130" y="885" width="40" height="20" as="geometry" />
        </mxCell>
        <mxCell id="9KalYZCbinb6cbjK1twI-13" value="" style="ellipse;whiteSpace=wrap;html=1;aspect=fixed;" vertex="1" parent="5XtY5YjrWJz4HPcQoO6L-14">
          <mxGeometry x="155" y="890" width="10" height="10" as="geometry" />
        </mxCell>
        <mxCell id="9KalYZCbinb6cbjK1twI-14" value="새로운 타입 저장" style="text;html=1;align=center;verticalAlign=middle;whiteSpace=wrap;rounded=0;" vertex="1" parent="5XtY5YjrWJz4HPcQoO6L-14">
          <mxGeometry x="165" y="880" width="94" height="30" as="geometry" />
        </mxCell>
        <mxCell id="9KalYZCbinb6cbjK1twI-15" value="직접입력한 &lt;br&gt;타입, 플랫폼, 제목, 태그&lt;div&gt;저장 가능&lt;/div&gt;" style="ellipse;shape=cloud;whiteSpace=wrap;html=1;" vertex="1" parent="5XtY5YjrWJz4HPcQoO6L-14">
          <mxGeometry x="350" y="570" width="156" height="110" as="geometry" />
        </mxCell>
        <mxCell id="9KalYZCbinb6cbjK1twI-16" value="화살표" parent="0" />
        <mxCell id="9KalYZCbinb6cbjK1twI-17" value="" style="endArrow=classic;html=1;rounded=0;exitX=0.456;exitY=0.878;exitDx=0;exitDy=0;exitPerimeter=0;" edge="1" parent="9KalYZCbinb6cbjK1twI-16" source="5XtY5YjrWJz4HPcQoO6L-10">
          <mxGeometry width="50" height="50" relative="1" as="geometry">
            <mxPoint x="250" y="530" as="sourcePoint" />
            <mxPoint x="230" y="560" as="targetPoint" />
          </mxGeometry>
        </mxCell>
      </root>
    </mxGraphModel>
  </diagram>
  <diagram id="P-0mNnQTkG7cTe2y4ypQ" name="업무 트래킹">
    <mxGraphModel dx="1434" dy="772" grid="1" gridSize="10" guides="1" tooltips="1" connect="1" arrows="1" fold="1" page="1" pageScale="1" pageWidth="827" pageHeight="1169" math="0" shadow="0">
      <root>
        <mxCell id="0" />
        <mxCell id="1" parent="0" />
      </root>
    </mxGraphModel>
  </diagram>
  <diagram id="sdfZG8en5-DridJr6YLa" name="마이페이지">
    <mxGraphModel dx="1434" dy="772" grid="1" gridSize="10" guides="1" tooltips="1" connect="1" arrows="1" fold="1" page="1" pageScale="1" pageWidth="827" pageHeight="1169" math="0" shadow="0">
      <root>
        <mxCell id="0" />
        <mxCell id="1" parent="0" />
      </root>
    </mxGraphModel>
  </diagram>
</mxfile>
